<svg width="130" height="32" viewBox="0 0 130 32" fill="none" xmlns="http://www.w3.org/2000/svg">
<path fill-rule="evenodd" clip-rule="evenodd" d="M23.4173 0V6.7501H13.4786V11.6668H23.4173V18.4336H13.4786H6.74762V11.6668V6.7501V0H13.4786H23.4173ZM0 18.434H6.74764V25.2008H0V18.434ZM76.9165 7.84964H79.9081L86.1571 22.5832L92.5723 7.84964H95.5639L84.6613 32H81.6531L84.6946 25.3832L76.9165 7.84964ZM113.181 16.0157C113.181 11.9323 109.94 7.49894 104.406 7.49894C99.2036 7.49894 95.3811 11.499 95.3811 16.6991C95.3811 21.5658 98.7715 25.9992 104.904 25.9992C107.297 25.9992 110.189 25.3159 112.4 23.0658L110.837 21.0658C108.843 22.9992 106.633 23.4992 104.954 23.4992C100.949 23.4992 98.5721 20.8825 98.1732 17.6658H112.998C113.114 17.0491 113.181 16.5491 113.181 16.0157ZM110.356 15.2157H98.2397C98.8048 12.1823 101.198 9.96565 104.406 9.96565C107.896 9.96565 109.957 12.5324 110.356 15.2157ZM115.375 7.84964H130V9.81633L119.081 23.0832H130V25.5999H115.375V23.7332V23.6665L126.277 10.3997H115.375V7.84964ZM40.2035 6.6012V7.85122V7.86788H47.2337V10.4013H40.2035V25.6015H37.5277V10.3679H33.9544V7.83455H37.5277V6.51786C37.5277 1.81779 39.788 0.11777 42.7962 0.0511025H47.2337V2.58447H42.7962C41.3669 2.75114 40.2035 3.61782 40.2035 6.6012ZM51.0562 7.49998V10.1V17.1668V25.6003H53.7652V0.0665379H51.0562V7.49998ZM71.4486 17.9344V7.86754H74.141V18.2677C74.141 22.7511 71.9638 25.2011 68.7728 25.8011C67.9585 26.0011 67.1275 26.0511 66.4294 26.0345H65.2661C64.2689 26.0345 63.5376 25.9011 63.5376 25.9011C60.0142 25.5011 57.5711 23.0344 57.5711 18.2677V7.8342H60.2469V17.9177C60.2469 21.2677 61.8258 22.9511 64.0196 23.3344C64.0196 23.3344 64.4849 23.4844 65.2661 23.4678H66.4294C66.7951 23.4678 67.2272 23.4344 67.7258 23.3344C67.8587 23.3011 68.0083 23.2678 68.1579 23.2344C68.1662 23.2344 68.1787 23.2303 68.1911 23.2261C68.2036 23.2219 68.2161 23.2178 68.2244 23.2178C70.119 22.6678 71.4486 21.0011 71.4486 17.9344Z" fill="#265FF1"/>
</svg>
